# xmcd
#
# Track frame offsets: 
#        150
#        10992
#        26332
#        37190
#        48907
#        61755
#        72105
#        84885
#        98077
#        111100
#        129242
#        152492
#        162612
#        177210
#        196147
#        206702
#        223997
#        233740
#        248890
#        261655
#        270920
#        285140
#        292762
#
# Disc length: 4157 seconds
#
# Revision: 3
# Processed by: cddbd v1.5.2PL0 Copyright (c) Steve Scherf et al.
# Submitted via: ExactAudioCopy v0.99pb5
#
DISCID=38103b17
DTITLE=J. J. Cale - Strummin' on the Porch.....A Beer in Reach
DYEAR=1990
DGENRE=
TTITLE0=Crazy Mama
TTITLE1=Magnolia
TTITLE2=After Midnight
TTITLE3=Call Me The Breeze
TTITLE4=Lies
TTITLE5=Cajun Moon
TTITLE6=Cocaine
TTITLE7=Cherry
TTITLE8=The Woman That Got Away
TTITLE9=You Got Something
TTITLE10=Sensitive Kind
TTITLE11=Don't Cry Sister
TTITLE12=I'll Make Love To You
TTITLE13=Friday
TTITLE14=Carry On
TTITLE15=Mama Don't
TTITLE16=Deep Dark Dungeon
TTITLE17=Wish I Had Not Said That
TTITLE18=City Girls
TTITLE19=Devil In Disguise
TTITLE20=Don't Wait
TTITLE21=Drifter's Wife
TTITLE22=Money Talks
EXTD=
EXTT0=
EXTT1=
EXTT2=
EXTT3=
EXTT4=
EXTT5=
EXTT6=
EXTT7=
EXTT8=
EXTT9=
EXTT10=
EXTT11=
EXTT12=
EXTT13=
EXTT14=
EXTT15=
EXTT16=
EXTT17=
EXTT18=
EXTT19=
EXTT20=
EXTT21=
EXTT22=
PLAYORDER=
